<svg xmlns="http://www.w3.org/2000/svg" xmlns:xlink="http://www.w3.org/1999/xlink" viewBox="0 0 172.96 164.49"><defs><style>.cls-1{fill:url(#radial-gradient);}.cls-2{fill:#d85a00;}.cls-3{fill:#ffd464;}.cls-4{fill:#f0ff17;}.cls-5{fill:#36ff86;}.cls-6{fill:#ff3de4;}.cls-7{font-size:41.4px;fill:none;stroke:#c1272d;stroke-miterlimit:10;font-family:MyriadPro-Regular, Myriad Pro;}</style><radialGradient id="radial-gradient" cx="86.48" cy="82.35" r="83.34" gradientUnits="userSpaceOnUse"><stop offset="0" stop-color="#fff"/><stop offset="1" stop-color="blue"/></radialGradient></defs><title>question_star</title><g id="Layer_2" data-name="Layer 2"><g id="Layer_1-2" data-name="Layer 1"><path class="cls-1" d="M43.78,104.8,1.07,63.18l59-8.58L86.48,1.13,112.87,54.6l59,8.58-42.7,41.62,10.08,58.77L86.48,135.83,33.7,163.58ZM58.39,73.06v31.87L86,120.86l27.6-15.93V73.06L86,57.12Z"/><path d="M86.48,2.26l25.83,52.33.23.47.52.08,57.75,8.39L129,104.26l-.38.37.09.52,9.86,57.52L86.94,135.51l-.47-.24-.47.24L34.36,162.66l9.86-57.52.09-.52-.38-.37L2.15,63.53,59.9,55.14l.52-.08.23-.47L86.48,2.26M86,121.44l.5-.29,27.1-15.65.5-.29V72.77l-.5-.29L86.49,56.83l-.5-.29-.5.29L58.39,72.48l-.5.29v32.45l.5.29,27.1,15.65.5.29M86.48,0,59.76,54.15,0,62.83,43.24,105,33,164.49l53.45-28.1,53.45,28.1L129.72,105,173,62.83,113.2,54.15,86.48,0ZM86,120.28l-27.1-15.65V73.35L86,57.7l27.1,15.65v31.29L86,120.28Z"/><polygon class="cls-2" points="13.08 66.61 56.91 62.03 46 94.04 13.08 66.61"/><path d="M56.18,62.61,45.76,93.19,14.31,67l41.87-4.37m1.45-1.16L11.85,66.23,46.24,94.89l11.4-33.44Z"/><polygon class="cls-3" points="50.82 108.25 78.22 128.07 42.33 151.49 50.82 108.25"/><path d="M51.16,109.11,77.33,128,43.05,150.42l8.11-41.31m-.68-1.73-8.87,45.17L79.1,128.09,50.48,107.38Z"/><polygon class="cls-4" points="86.05 17.25 105.89 49.33 70.44 50.13 86.05 17.25"/><path d="M86.11,18.3,105,48.85l-33.76.76L86.11,18.3M86,16.21,69.64,50.65l37.13-.83L86,16.21Z"/><polygon class="cls-5" points="96.64 132.74 122.76 111.26 133.9 153.89 96.64 132.74"/><path d="M122.47,112.14l10.64,40.73-35.6-20.21,25-20.52m.57-1.77L95.76,132.81l38.92,22.1L123,110.38Z"/><polygon class="cls-6" points="118.97 59.52 155.17 70.09 127.64 93.89 118.97 59.52"/><path d="M119.67,60.24l34.48,10.08L127.93,93l-8.26-32.74m-1.4-1.45,9.08,36,28.84-24.93L118.27,58.79Z"/><text class="cls-7" transform="translate(69.99 101.14) scale(2.11 1)">?</text></g></g></svg>