<svg xmlns="http://www.w3.org/2000/svg" viewBox="0 0 111.28 86.3"><defs><style>.cls-1{fill:#f0f;}</style></defs><title>swirl_eye</title><g id="Layer_2" data-name="Layer 2"><g id="Layer_1-2" data-name="Layer 1"><path class="cls-1" d="M106.9,18.43c2.56,6.91,3.35,14.09-2,20.87l-.06.08-.08.06a2.56,2.56,0,0,1-1.58.55,4.7,4.7,0,0,1-2.82-1.32l-.15-.11-.08-.15a26.89,26.89,0,0,1-2-5.56,18.29,18.29,0,0,0-2-5.19L87.22,16.12C77.77,5.73,63.31,0,46.51,0A79.51,79.51,0,0,0,23.66,3.42,57.06,57.06,0,0,1,36.17,1.86,33,33,0,0,1,50.68,5l.1,0,.08.06c1.7,1.32-.05,2.68-1,3.41l-.14.11-.19.06a51.71,51.71,0,0,1-7.17,1.53,34.51,34.51,0,0,0-6.69,1.53l-14.9,6.93C-1.34,30.75-4,51.12,4.38,67.87,1.82,61,1,53.78,6.41,47l.06-.08.08-.06a2.56,2.56,0,0,1,1.58-.55A4.71,4.71,0,0,1,11,47.63l.14.11.08.15a27,27,0,0,1,2,5.56,18.32,18.32,0,0,0,2,5.19l8.94,11.55C33.51,80.58,48,86.3,64.77,86.3a79.54,79.54,0,0,0,22.85-3.42,57.09,57.09,0,0,1-12.51,1.56A33,33,0,0,1,60.6,81.31l-.1,0-.08-.06c-1.7-1.32.05-2.68,1-3.41l.14-.11.19-.06a51.58,51.58,0,0,1,7.17-1.53,34.47,34.47,0,0,0,6.69-1.53l14.9-6.93C112.62,55.55,115.26,35.18,106.9,18.43ZM57.42,59.76a7.34,7.34,0,0,1-3.28.79,7.43,7.43,0,0,1-3.66-1c-16.59-1.29-29.26-8.14-29.26-16.41S33.89,28,50.49,26.75a7.43,7.43,0,0,1,3.66-1,7.33,7.33,0,0,1,3.28.79c18.69.32,33.63,7.63,33.63,16.61S76.11,59.44,57.42,59.76Z"/><path class="cls-1" d="M65.12,43.15c0-7.8-3.24-14.4-7.7-16.61a7.33,7.33,0,0,0-3.28-.79,7.43,7.43,0,0,0-3.66,1c-4.26,2.39-7.32,8.83-7.32,16.41s3.05,14,7.32,16.41a7.43,7.43,0,0,0,3.66,1,7.34,7.34,0,0,0,3.28-.79C61.88,57.55,65.12,51,65.12,43.15Z"/></g></g></svg>